<?xml version="1.0" encoding="iso-8859-1" standalone="no"?> 
<?xml-stylesheet href="TE_export636446200598938571.css" type="text/css"?> 
<svg xmlns="http://www.w3.org/2000/svg" xmlns:xlink="http://www.w3.org/1999/xlink" width="783.9218pt" height="658.881pt" viewBox="-0.2 -0.2 783.9218 658.881 "> 
<g transform="translate(0, 658.681 ) scale(1,-1) translate(0,0.2 )"> 
<g> 
 <g stroke="rgb(0.0%,0.0%,0.0%)"> 
 <g fill="rgb(0.0%,0.0%,0.0%)"> 
 <g stroke-width="0.4pt"> 
 <g> 
 <g> 
 <g stroke="rgb(0.0%,0.0%,0.0%)"> 
 <g fill="rgb(5.88226%,50.97961%,47.05963%)"> 
 <path d=" M  0.0 0.0 M  0.0 0.0 L  0.0 85.35823 L  341.43292 85.35823 L  341.43292 0.0 Z M  341.43292 85.35823  " /> 
 </g> 
 </g> 
 </g> 
 <g> 
 <g> 
 <g transform="matrix(4.0,0.0,0.0,4.0,82.21622,28.79025)"> 
 <g fill="rgb(100.0%,100.0%,100.0%)"> 
 <text style="stroke:none" transform="scale(1,-1) translate(22.12506,0)" text-anchor="middle"  font-size="10"> 
Definition</text> 
</g> 
 </g> 
 </g> 
 </g> 
 <g> 
 <g stroke="rgb(19.60907%,19.60907%,78.4317%)"> 
 <g stroke-width="8.53581pt"> 
 <g fill="rgb(19.60907%,19.60907%,78.4317%)"> 
 <path d=" M  170.71646 85.35823 L  170.71646 220.27016  " /> 
 <g> 
 <g transform="matrix(0.0,1.0,-1.0,0.0,170.71646,220.27016)"> 
 <g> 
 <g stroke-dasharray="none" stroke-dashoffset="0.0pt"> 
 <g stroke-linejoin="miter"> 
 <path d=" M  -14.48668 -15.80365 L  1.31697 0.0 L  -14.48668 15.80365 Z  " /> 
 </g> 
 </g> 
 </g> 
 </g> 
 </g> 
 </g> 
 </g> 
 </g> 
 </g> 
 <g> 
 <g stroke="rgb(19.60907%,19.60907%,78.4317%)"> 
 <g stroke-width="8.53581pt"> 
 <g fill="rgb(19.60907%,19.60907%,78.4317%)"> 
 <path d=" M  170.71646 256.07469 L  170.71646 419.43936  " /> 
 <g> 
 <g transform="matrix(0.0,1.0,-1.0,0.0,170.71646,419.43936)"> 
 <g> 
 <g stroke-dasharray="none" stroke-dashoffset="0.0pt"> 
 <g stroke-linejoin="miter"> 
 <path d=" M  -14.48668 -15.80365 L  1.31697 0.0 L  -14.48668 15.80365 Z  " /> 
 </g> 
 </g> 
 </g> 
 </g> 
 </g> 
 </g> 
 </g> 
 </g> 
 </g> 
 <g> 
 <g stroke="rgb(19.60907%,19.60907%,78.4317%)"> 
 <g stroke-width="8.53581pt"> 
 <g fill="rgb(19.60907%,19.60907%,78.4317%)"> 
 <path d=" M  170.71646 455.2439 L  170.71646 647.06131  " /> 
 <g> 
 <g transform="matrix(0.0,1.0,-1.0,0.0,170.71646,647.06131)"> 
 <g> 
 <g stroke-dasharray="none" stroke-dashoffset="0.0pt"> 
 <g stroke-linejoin="miter"> 
 <path d=" M  -14.48668 -15.80365 L  1.31697 0.0 L  -14.48668 15.80365 Z  " /> 
 </g> 
 </g> 
 </g> 
 </g> 
 </g> 
 </g> 
 </g> 
 </g> 
 </g> 
 <g> 
 <g stroke="rgb(19.60907%,19.60907%,98.03925%)"> 
 <g stroke-width="8.53581pt"> 
 <g fill="rgb(19.60907%,19.60907%,98.03925%)"> 
 <path d=" M  512.14938 42.67911 L  348.78471 42.67911  " /> 
 <g> 
 <g transform="matrix(-1.0,0.0,0.0,-1.0,348.78471,42.67911)"> 
 <g> 
 <g stroke-dasharray="none" stroke-dashoffset="0.0pt"> 
 <g stroke-linejoin="miter"> 
 <path d=" M  -14.48668 -15.80365 L  1.31697 0.0 L  -14.48668 15.80365 Z  " /> 
 </g> 
 </g> 
 </g> 
 </g> 
 </g> 
 </g> 
 </g> 
 </g> 
 </g> 
 <g> 
 <g> 
 <g transform="matrix(3.0,0.0,0.0,3.0,523.72238,32.26247)"> 
 <g fill="rgb(0.0%,0.0%,100.0%)"> 
 <text style="stroke:none" transform="scale(1,-1) translate(41.66675,0)" text-anchor="middle"  font-size="10"> 
Fundamental Level</text> 
</g> 
 </g> 
 </g> 
 </g> 
 </g> 
 </g> 
 </g> 
 </g> 
 </g> 
                                                                                                                                                                                                                   </g> 
</svg> 
