<?xml version="1.0" encoding="iso-8859-1" standalone="no"?> 
<?xml-stylesheet href="TE_export636446323607534772.css" type="text/css"?> 
<svg xmlns="http://www.w3.org/2000/svg" xmlns:xlink="http://www.w3.org/1999/xlink" width="327.49915pt" height="469.05428pt" viewBox="-35.71223 -42.06313 327.49915 469.05428 "> 
<g transform="translate(0, 426.99115 ) scale(1,-1) translate(0,42.06313 )"> 
           <g> 
 <g stroke="rgb(0.0%,0.0%,0.0%)"> 
 <g fill="rgb(0.0%,0.0%,0.0%)"> 
 <g stroke-width="0.4pt"> 
 <g> 
 <g> 
 <g stroke="rgb(0.0%,0.0%,0.0%)"> 
 <g fill="rgb(5.88226%,50.97961%,47.05963%)"> 
 <path d=" M  0.0 0.0 M  0.0 0.0 L  0.0 85.35823 L  256.07469 85.35823 L  256.07469 0.0 Z M  256.07469 85.35823  " /> 
 </g> 
 </g> 
 </g> 
 <g> 
 <g> 
 <g transform="matrix(1.7,0.0,0.0,1.7,21.14986,38.42912)"> 
 <g fill="rgb(100.0%,100.0%,100.0%)"> 
 <text style="stroke:none" transform="scale(1,-1) translate(62.8751,0)" text-anchor="middle"  font-size="10"> 
Defined/Undefined Concepts</text> 
</g> 
 </g> 
 </g> 
 </g> 
 <g> 
 <g stroke="rgb(19.60907%,19.60907%,78.4317%)"> 
 <g stroke-width="6.0pt"> 
 <g fill="rgb(19.60907%,19.60907%,78.4317%)"> 
 <path d=" M  128.03734 85.35823 L  128.03734 165.47446  " /> 
 <g> 
 <g transform="matrix(0.0,1.0,-1.0,0.0,128.03734,165.47446)"> 
 <g> 
 <g stroke-dasharray="none" stroke-dashoffset="0.0pt"> 
 <g stroke-linejoin="miter"> 
 <path d=" M  -11.0 -12.0 L  1.0 0.0 L  -11.0 12.0 Z  " /> 
 </g> 
 </g> 
 </g> 
 </g> 
 </g> 
 </g> 
 </g> 
 </g> 
 </g> 
 <g> 
 <g stroke="rgb(0.0%,0.0%,0.0%)"> 
 <g fill="rgb(5.88226%,50.97961%,47.05963%)"> 
 <path d=" M  0.0 170.71646 M  0.0 170.71646 L  0.0 256.07469 L  256.07469 256.07469 L  256.07469 170.71646 Z M  256.07469 256.07469  " /> 
 </g> 
 </g> 
 </g> 
 <g> 
 <g> 
 <g transform="matrix(1.7,0.0,0.0,1.7,100.129,207.58727)"> 
 <g fill="rgb(100.0%,100.0%,100.0%)"> 
 <text style="stroke:none" transform="scale(1,-1) translate(16.4167,0)" text-anchor="middle"  font-size="10"> 
Axioms</text> 
</g> 
 </g> 
 </g> 
 </g> 
 <g> 
 <g stroke="rgb(19.60907%,19.60907%,78.4317%)"> 
 <g stroke-width="6.0pt"> 
 <g fill="rgb(19.60907%,19.60907%,78.4317%)"> 
 <path d=" M  128.03734 256.07469 L  128.03734 336.19092  " /> 
 <g> 
 <g transform="matrix(0.0,1.0,-1.0,0.0,128.03734,336.19092)"> 
 <g> 
 <g stroke-dasharray="none" stroke-dashoffset="0.0pt"> 
 <g stroke-linejoin="miter"> 
 <path d=" M  -11.0 -12.0 L  1.0 0.0 L  -11.0 12.0 Z  " /> 
 </g> 
 </g> 
 </g> 
 </g> 
 </g> 
 </g> 
 </g> 
 </g> 
 </g> 
 <g> 
 <g stroke="rgb(0.0%,0.0%,0.0%)"> 
 <g fill="rgb(5.88226%,50.97961%,47.05963%)"> 
 <path d=" M  0.0 341.43292 M  0.0 341.43292 L  0.0 426.79115 L  256.07469 426.79115 L  256.07469 341.43292 Z M  256.07469 426.79115  " /> 
 </g> 
 </g> 
 </g> 
 <g> 
 <g> 
 <g transform="matrix(1.7,0.0,0.0,1.7,101.33319,379.86205)"> 
 <g fill="rgb(100.0%,100.0%,100.0%)"> 
 <text style="stroke:none" transform="scale(1,-1) translate(15.70836,0)" text-anchor="middle"  font-size="10"> 
Theory</text> 
</g> 
 </g> 
 </g> 
 </g> 
 <g> 
 <g> 
 <g transform="matrix(2.0,0.0,0.0,2.0,-29.04628,-35.39717)"> 
 <g fill="rgb(0.0%,0.0%,0.0%)"> 
 <text style="stroke:none" transform="scale(1,-1) translate(78.54181,0)" text-anchor="middle"  font-size="10"> 
Axiomatic Theories in Mathematics</text> 
</g> 
 </g> 
 </g> 
 </g> 
 </g> 
 </g> 
 </g> 
 </g> 
 </g> 
 
                                                                                                  </g> 
</svg> 
