<?xml version="1.0" encoding="iso-8859-1" standalone="no"?> 
<?xml-stylesheet href="TE_export636446074834635620.css" type="text/css"?> 
<svg xmlns="http://www.w3.org/2000/svg" xmlns:xlink="http://www.w3.org/1999/xlink" width="444.00412pt" height="604.48022pt" viewBox="-0.2 -63.6781 444.00412 604.48022 "> 
<g transform="translate(0, 540.80212 ) scale(1,-1) translate(0,63.6781 )"> 
<g> 
 <g stroke="rgb(0.0%,0.0%,0.0%)"> 
 <g fill="rgb(0.0%,0.0%,0.0%)"> 
 <g stroke-width="0.4pt"> 
 <g> 
 <path d=" M  0.0 0.0 M  0.0 0.0 L  0.0 56.90549 L  341.43292 56.90549 L  341.43292 0.0 Z M  341.43292 56.90549 M  341.43292 56.90549 L  341.43292 113.81097 L  0.0 113.81097 L  0.0 56.90549 Z M  0.0 113.81097 M  0.0 113.81097 L  0.0 170.71646 L  341.43292 170.71646 L  341.43292 113.81097 Z M  341.43292 170.71646  " style="fill:none"/> 
 <g> 
 <g> 
 <g transform="matrix(3.0,0.0,0.0,3.0,135.50807,21.11942)"> 
 <g fill="rgb(0.0%,0.0%,100.0%)"> 
 <text style="stroke:none" transform="scale(1,-1) translate(11.73613,0)" text-anchor="middle"  font-size="10"> 
Logic</text> 
</g> 
 </g> 
 </g> 
 </g> 
 <g> 
 <g> 
 <g transform="matrix(3.0,0.0,0.0,3.0,97.758,77.85823)"> 
 <g fill="rgb(0.0%,0.0%,100.0%)"> 
 <text style="stroke:none" transform="scale(1,-1) translate(24.31949,0)" text-anchor="middle"  font-size="10"> 
Set Theory</text> 
</g> 
 </g> 
 </g> 
 </g> 
 <g> 
 <g> 
 <g transform="matrix(3.0,0.0,0.0,3.0,65.59126,134.76372)"> 
 <g fill="rgb(0.0%,0.0%,100.0%)"> 
 <text style="stroke:none" transform="scale(1,-1) translate(35.04173,0)" text-anchor="middle"  font-size="10"> 
Number System</text> 
</g> 
 </g> 
 </g> 
 </g> 
 <path d=" M  14.22636 170.71646 M  14.22636 170.71646 L  14.22636 426.79115 L  99.5846 426.79115 L  99.5846 170.71646 Z M  99.5846 426.79115  " style="fill:none"/> 
 <path d=" M  128.03734 170.71646 M  128.03734 170.71646 L  128.03734 426.79115 L  213.39557 426.79115 L  213.39557 170.71646 Z M  213.39557 426.79115  " style="fill:none"/> 
 <path d=" M  241.84831 170.71646 M  241.84831 170.71646 L  241.84831 426.79115 L  327.20654 426.79115 L  327.20654 170.71646 Z M  327.20654 426.79115  " style="fill:none"/> 
 <path d=" M  0.0 426.79115 M  0.0 426.79115 L  0.0 540.60213 L  341.43292 540.60213 L  341.43292 426.79115 Z M  341.43292 540.60213  " style="fill:none"/> 
 <g> 
 <g> 
 <g transform="matrix(3.0,0.0,0.0,3.0,86.04964,473.28)"> 
 <g fill="rgb(0.0%,0.0%,100.0%)"> 
 <text style="stroke:none" transform="scale(1,-1) translate(28.22227,0)" text-anchor="middle"  font-size="10"> 
Mathematics</text> 
</g> 
 </g> 
 </g> 
 </g> 
 <g> 
 <g> 
 <g transform="matrix(0.0,3.0,-3.0,0.0,64.40549,236.62868)"> 
 <g fill="rgb(62.74567%,22.74475%,3.1372%)"> 
 <text style="stroke:none" transform="scale(1,-1) translate(20.70837,0)" text-anchor="middle"  font-size="10"> 
Algebraic</text> 
</g> 
 </g> 
 </g> 
 </g> 
 <g> 
 <g> 
 <g transform="matrix(0.0,3.0,-3.0,0.0,178.21646,223.75362)"> 
 <g fill="rgb(62.74567%,22.74475%,3.1372%)"> 
 <text style="stroke:none" transform="scale(1,-1) translate(25.00006,0)" text-anchor="middle"  font-size="10"> 
Topological</text> 
</g> 
 </g> 
 </g> 
 </g> 
 <g> 
 <g> 
 <g transform="matrix(0.0,3.0,-3.0,0.0,294.94408,245.33704)"> 
 <g fill="rgb(62.74567%,22.74475%,3.1372%)"> 
 <text style="stroke:none" transform="scale(1,-1) translate(17.80559,0)" text-anchor="middle"  font-size="10"> 
Ordered</text> 
</g> 
 </g> 
 </g> 
 </g> 
 <g> 
 <g> 
 <g transform="matrix(0.0,2.5,-2.5,0.0,378.5662,4.22195)"> 
 <g fill="rgb(0.0%,0.0%,0.0%)"> 
 <text style="stroke:none" transform="scale(1,-1) translate(26.76396,0)" text-anchor="middle"  font-size="10"> 
Foundations</text> 
</g> 
 </g> 
 </g> 
 </g> 
 <g> 
 <g> 
 <g transform="matrix(0.0,2.5,-2.5,0.0,407.01894,61.0624)"> 
 <g fill="rgb(0.0%,0.0%,0.0%)"> 
 <text style="stroke:none" transform="scale(1,-1) translate(4.02779,0)" text-anchor="middle"  font-size="10"> 
of</text> 
</g> 
 </g> 
 </g> 
 </g> 
 <g> 
 <g> 
 <g transform="matrix(0.0,2.5,-2.5,0.0,435.47168,0.57617)"> 
 <g fill="rgb(0.0%,0.0%,0.0%)"> 
 <text style="stroke:none" transform="scale(1,-1) translate(28.22227,0)" text-anchor="middle"  font-size="10"> 
Mathematics</text> 
</g> 
 </g> 
 </g> 
 </g> 
 <g> 
 <g> 
 <g transform="matrix(0.0,2.5,-2.5,0.0,378.4273,194.90926)"> 
 <g fill="rgb(0.0%,0.0%,0.0%)"> 
 <text style="stroke:none" transform="scale(1,-1) translate(35.84727,0)" text-anchor="middle"  font-size="10"> 
Basic Structures</text> 
</g> 
 </g> 
 </g> 
 </g> 
 <g> 
 <g> 
 <g transform="matrix(0.0,2.5,-2.5,0.0,406.68665,274.11076)"> 
 <g fill="rgb(0.0%,0.0%,0.0%)"> 
 <text style="stroke:none" transform="scale(1,-1) translate(4.16667,0)" text-anchor="middle"  font-size="10"> 
in</text> 
</g> 
 </g> 
 </g> 
 </g> 
 <g> 
 <g> 
 <g transform="matrix(0.0,2.5,-2.5,0.0,435.47168,213.97176)"> 
 <g fill="rgb(0.0%,0.0%,0.0%)"> 
 <text style="stroke:none" transform="scale(1,-1) translate(28.22227,0)" text-anchor="middle"  font-size="10"> 
Mathematics</text> 
</g> 
 </g> 
 </g> 
 </g> 
 <g> 
 <g> 
 <g transform="matrix(2.7,0.0,0.0,2.7,20.82878,-49.4291)"> 
 <g fill="rgb(0.0%,0.0%,0.0%)"> 
 <text style="stroke:none" transform="scale(1,-1) translate(55.51402,0)" text-anchor="middle"  font-size="10"> 
Builiding of Mathematics</text> 
</g> 
 </g> 
 </g> 
 </g> 
 </g> 
 </g> 
 </g> 
 </g> 
 </g> 
 
                                                                                                                                     </g> 
</svg> 
